#!OML:ASF H:\Terrain\Patient Classification 1\Takeo\Monday\TakeoMonday.ASF
:FULLY-SPECIFIED
:DEGREES
131
root 9.59868 17.1861 -8.23497 -4.21136 -8.01562 -2.82199
lowerback 7.10507 1.22627 4.87787
upperback 3.43557 1.93873 0.995657
thorax -0.300698 1.01287 -1.84635
lowerneck -10.0664 4.32034 1.72912
upperneck -2.09118 5.61331 -4.38534
head 1.23377 2.70614 -1.44079
rclavicle 2.7805e-014 1.43125e-014
rhumerus -11.1077 16.8455 -83.4953
rradius 49.7371
rwrist -17.6754
rhand -24.1924 17.3358
rfingers 7.12502
rthumb 2.2915 -12.6316
lclavicle 2.7805e-014 1.43125e-014
lhumerus -50.3562 22.9938 71.6068
lradius 20.1314
lwrist 13.5529
lhand -21.1206 21.4179
lfingers 7.12502
lthumb 5.25792 51.3327
rfemur 14.7396 4.53906 27.8547
rtibia 13.4797
rfoot -17.0149 1.01587
rtoes -2.93515
lfemur -27.0039 -5.40645 -16.1146
ltibia 24.3974
lfoot -11.1371 16.3101
ltoes -16.8383
132
root 9.61242 17.1702 -8.05305 -4.25999 -8.31696 -2.93033
lowerback 7.02546 1.30529 5.10358
upperback 3.5711 2.04676 0.964688
thorax -0.0986617 1.07647 -2.00625
lowerneck -10.2439 4.43576 1.65743
upperneck -2.0465 5.77156 -4.20894
head 1.27412 2.78652 -1.3612
rclavicle -8.97016e-015 5.36719e-015
rhumerus -10.4152 17.0838 -83.1489
rradius 50.3513
rwrist -17.3912
rhand -24.5518 17.8659
rfingers 7.12502
rthumb 1.94448 -12.105
lclavicle -8.97016e-015 5.36719e-015
lhumerus -50.333 23.4051 71.2969
lradius 19.8404
lwrist 13.1132
lhand -21.3456 21.2469
lfingers 7.12502
lthumb 5.04065 51.167
rfemur 16.0984 4.32717 27.7239
rtibia 12.0037
rfoot -16.2504 1.67856
rtoes -3.61449
lfemur -27.014 -5.37461 -15.925
ltibia 23.6407
lfoot -12.1721 16.2341
ltoes -14.7377
133
root 9.62218 17.1486 -7.87113 -4.19983 -8.39888 -3.07785
lowerback 6.9763 1.29024 5.24037
upperback 3.50462 2.03465 0.980118
thorax -0.136225 1.06994 -2.06572
lowerneck -9.98296 4.53302 1.72807
upperneck -2.168 5.89106 -4.16496
head 1.19382 2.851 -1.3598
rclavicle -1.34677e-014 -6.75868e-015
rhumerus -10.1459 17.3825 -82.9197
rradius 51.026
rwrist -17.2235
rhand -24.4582 19.5233
rfingers 7.12502
rthumb 2.03483 -10.4468
lclavicle -1.34677e-014 -6.75868e-015
lhumerus -50.6145 23.9089 70.7556
lradius 19.4992
lwrist 12.6241
lhand -21.2238 21.0308
lfingers 7.12502
lthumb 5.15829 50.9481
rfemur 17.3574 4.10322 27.7139
rtibia 10.5958
rfoot -15.4248 1.93755
rtoes -4.97565
lfemur -27.19 -5.5433 -15.6929
ltibia 23.263
lfoot -12.9512 15.9208
ltoes -12.6527
134
root 9.63278 17.129 -7.68599 -4.18414 -8.57514 -3.57794
lowerback 7.02067 1.27458 5.68243
upperback 3.42934 2.04829 1.17088
thorax -0.227052 1.07643 -2.11923
lowerneck -9.71701 4.73194 1.84651
upperneck -2.20861 6.14653 -4.27552
head 1.15134 2.97927 -1.40944
rclavicle 1.51076e-014 7.55382e-015
rhumerus -9.96076 17.4226 -82.7388
rradius 51.6641
rwrist -17.2317
rhand -24.2915 20.1252
rfingers 7.12502
rthumb 2.1958 -9.84322
lclavicle 1.51076e-014 7.55382e-015
lhumerus -51.1617 24.4994 70.3006
lradius 19.4547
lwrist 12.0853
lhand -21.109 21.3517
lfingers 7.12502
lthumb 5.26913 51.2662
rfemur 18.5113 4.15016 28.1983
rtibia 9.73963
rfoot -14.8569 1.84969
rtoes -6.55341
lfemur -27.1606 -5.54414 -15.133
ltibia 23.044
lfoot -13.0941 15.7497
ltoes -12.3479
135
root 9.65115 17.1209 -7.49324 -4.18899 -8.72888 -3.71096
lowerback 6.8766 1.3145 5.9083
upperback 3.46807 2.10303 1.22167
thorax -0.0952477 1.1101 -2.19087
lowerneck -9.79825 4.95584 1.92904
upperneck -2.1329 6.43838 -4.33944
head 1.20467 3.12157 -1.42829
rclavicle 1.50331e-014 1.31198e-014
rhumerus -9.47506 17.4419 -82.4654
rradius 52.1368
rwrist -17.4112
rhand -24.5197 19.2003
rfingers 7.12502
rthumb 1.97542 -10.7703
lclavicle 1.50331e-014 1.31198e-014
lhumerus -51.4075 25.035 69.9528
lradius 19.2897
lwrist 11.4259
lhand -21.0303 22.1194
lfingers 7.12502
lthumb 5.34512 52.0319
rfemur 19.3265 4.23426 28.2301
rtibia 9.53232
rfoot -14.6088 1.88771
rtoes -8.3287
lfemur -27.0055 -5.35334 -15.1145
ltibia 22.9357
lfoot -12.7051 15.6079
ltoes -14.4915
136
root 9.66557 17.1124 -7.3002 -4.23819 -8.71838 -3.36687
lowerback 6.74913 1.33235 5.66281
upperback 3.46608 2.10227 1.05569
thorax -0.0305628 1.11012 -2.22127
lowerneck -9.6468 5.11721 2.23784
upperneck -2.16825 6.62417 -4.49519
head 1.19241 3.21197 -1.5261
rclavicle -1.05604e-014 7.15625e-015
rhumerus -9.07012 17.3998 -82.3367
rradius 52.4061
rwrist -17.1311
rhand -25.0293 17.9819
rfingers 7.12502
rthumb 1.48329 -11.9927
lclavicle -1.05604e-014 7.15625e-015
lhumerus -51.2526 25.2795 69.6143
lradius 18.5935
lwrist 10.9386
lhand -20.9936 22.1345
lfingers 7.12502
lthumb 5.38048 52.0462
rfemur 19.8142 4.21097 27.7297
rtibia 9.92146
rfoot -14.5449 2.01962
rtoes -9.46307
lfemur -26.7434 -5.25747 -15.6495
ltibia 22.9026
lfoot -12.1126 15.4593
ltoes -17.1281
137
root 9.67399 17.0981 -7.11041 -4.37891 -8.80549 -2.89903
lowerback 6.77034 1.34277 5.08897
upperback 3.42266 2.08514 0.931159
thorax -0.107604 1.09317 -2.03016
lowerneck -9.37126 5.31107 2.52509
upperneck -2.15843 6.85951 -4.60525
head 1.17307 3.32926 -1.60608
rclavicle 1.51325e-014 2.18663e-015
rhumerus -9.02323 17.2959 -82.3082
rradius 52.8106
rwrist -16.4233
rhand -24.6056 17.3724
rfingers 7.12502
rthumb 1.89251 -12.599
lclavicle 1.51325e-014 2.18663e-015
lhumerus -51.2012 25.5794 69.363
lradius 18.0312
lwrist 10.5909
lhand -20.9996 21.7164
lfingers 7.12502
lthumb 5.37471 51.6282
rfemur 20.1872 4.27212 27.1593
rtibia 10.7293
rfoot -14.6869 1.95335
rtoes -10.7638
lfemur -26.3044 -5.32946 -16.2055
ltibia 22.9461
lfoot -11.45 15.6116
ltoes -18.2034
138
root 9.68216 17.0854 -6.91671 -4.5515 -8.96925 -2.46287
lowerback 6.79795 1.42062 4.51773
upperback 3.40053 2.15704 0.86196
thorax -0.161801 1.1215 -1.78846
lowerneck -9.35502 5.47144 2.35846
upperneck -1.97261 7.09045 -4.24668
head 1.21413 3.45058 -1.45086
rclavicle -5.80203e-015 1.98785e-015
rhumerus -9.10896 17.217 -82.1902
rradius 53.3318
rwrist -16.3221
rhand -23.7842 18.0435
rfingers 7.12502
rthumb 2.68581 -11.9194
lclavicle -5.80203e-015 1.98785e-015
lhumerus -51.3697 26.1987 68.8855
lradius 17.6954
lwrist 9.73938
lhand -20.8224 21.7104
lfingers 7.12502
lthumb 5.54578 51.6179
rfemur 20.5877 4.55095 26.7136
rtibia 11.5835
rfoot -14.7874 1.63017
rtoes -12.666
lfemur -25.8295 -5.11829 -16.8324
ltibia 23.2226
lfoot -11.0555 15.8767
ltoes -17.0334
139
root 9.68622 17.0719 -6.71191 -4.54266 -9.17587 -2.50572
lowerback 6.5441 1.53556 4.4716
upperback 3.41886 2.29264 0.882161
thorax 0.00361831 1.19232 -1.74134
lowerneck -9.34465 5.57623 2.14663
upperneck -1.86893 7.24915 -3.90774
head 1.22533 3.5365 -1.29923
rclavicle 6.03808e-015 -1.2921e-014
rhumerus -9.12803 16.9034 -82.1126
rradius 53.7469
rwrist -16.4949
rhand -23.4646 18.6263
rfingers 7.12502
rthumb 2.99438 -11.3324
lclavicle 6.03808e-015 -1.2921e-014
lhumerus -51.3246 26.7367 68.4179
lradius 17.2251
lwrist 8.81408
lhand -20.5613 21.6261
lfingers 7.12502
lthumb 5.7979 51.5268
rfemur 20.9477 5.07695 26.8907
rtibia 12.326
rfoot -14.6276 1.23179
rtoes -13.7016
lfemur -25.554 -4.35388 -17.1382
ltibia 23.8132
lfoot -10.8323 16.1433
ltoes -14.1745
140
root 9.69135 17.0587 -6.49825 -4.31279 -9.34024 -2.85458
lowerback 5.98167 1.59292 4.68742
upperback 3.42231 2.34893 1.00952
thorax 0.326961 1.22902 -1.71428
lowerneck -9.31297 5.77293 2.15168
upperneck -1.75636 7.51297 -3.83323
head 1.26054 3.66907 -1.26397
rclavicle 3.76448e-015 1.0138e-014
rhumerus -9.13054 16.6941 -82.0397
rradius 54.106
rwrist -16.6003
rhand -23.1283 18.3115
rfingers 7.12502
rthumb 3.31917 -11.6424
lclavicle 3.76448e-015 1.0138e-014
lhumerus -51.1437 27.051 68.3275
lradius 16.8647
lwrist 8.35758
lhand -20.3592 21.4728
lfingers 7.12502
lthumb 5.99302 51.3681
rfemur 21.2843 5.37226 27.2716
rtibia 12.8312
rfoot -14.3049 1.11018
rtoes -13.5815
lfemur -25.5257 -3.352 -17.193
ltibia 24.6588
lfoot -10.1046 16.4106
ltoes -12.0758
141
root 9.7012 17.0542 -6.2879 -4.22407 -9.42515 -2.96002
lowerback 5.78838 1.5913 4.59442
upperback 3.23873 2.33837 1.10582
thorax 0.235569 1.2171 -1.56046
lowerneck -9.02292 6.02567 2.74224
upperneck -1.56605 7.80941 -4.2549
head 1.33012 3.80847 -1.48915
rclavicle 1.32689e-014 -8.15017e-015
rhumerus -9.48563 16.8142 -82.0898
rradius 54.3434
rwrist -16.8357
rhand -23.023 18.2905
rfingers 7.12502
rthumb 3.42091 -11.6618
lclavicle 1.32689e-014 -8.15017e-015
lhumerus -51.4777 27.4121 67.9838
lradius 16.7295
lwrist 7.85285
lhand -20.2423 21.5055
lfingers 7.12502
lthumb 6.10593 51.3975
rfemur 21.8665 5.47186 27.3238
rtibia 12.9166
rfoot -13.6811 1.03601
rtoes -13.7894
lfemur -25.4767 -2.43899 -17.5173
ltibia 25.7394
lfoot -8.79116 17.1205
ltoes -11.0812
142
root 9.71492 17.0561 -6.08219 -4.38661 -9.46228 -2.58557
lowerback 5.97046 1.6039 4.04827
upperback 2.95241 2.34802 1.04698
thorax -0.182243 1.20446 -1.32977
lowerneck -8.5299 6.20018 3.52689
upperneck -1.35464 7.99653 -4.78391
head 1.38609 3.89418 -1.79495
rclavicle -1.43746e-014 -8.34896e-015
rhumerus -10.1613 16.8761 -82.2942
rradius 54.4852
rwrist -16.9733
rhand -23.444 18.7616
rfingers 7.12502
rthumb 3.01433 -11.1969
lclavicle -1.43746e-014 -8.34896e-015
lhumerus -52.1185 28.0056 67.102
lradius 16.4782
lwrist 6.87741
lhand -20.3264 21.5676
lfingers 7.12502
lthumb 6.02473 51.462
rfemur 22.705 5.7478 26.9652
rtibia 12.7594
rfoot -12.8231 0.778087
rtoes -16.0535
lfemur -25.3257 -1.8371 -18.2941
ltibia 26.9478
lfoot -7.39005 18.4616
ltoes -9.87627
143
root 9.73028 17.0549 -5.87 -4.6113 -9.31299 -2.12033
lowerback 5.92054 1.58908 3.51527
upperback 2.91309 2.29903 0.925097
thorax -0.215262 1.17491 -1.1542
lowerneck -8.70599 6.28912 3.39395
upperneck -0.853107 8.12906 -4.38874
head 1.55762 3.96299 -1.62726
rclavicle -4.43538e-015 -2.16675e-014
rhumerus -10.5124 16.6218 -82.4625
rradius 54.5074
rwrist -16.6533
rhand -23.9264 19.0044
rfingers 7.12502
rthumb 2.54847 -10.9602
lclavicle -4.43538e-015 -2.16675e-014
lhumerus -52.2567 28.8246 66.3303
lradius 16.0789
lwrist 5.76749
lhand -20.4042 21.6483
lfingers 7.12502
lthumb 5.94963 51.5448
rfemur 23.6442 6.03859 26.5592
rtibia 12.7288
rfoot -11.8956 0.476088
rtoes -19.0479
lfemur -25.1726 -1.56381 -19.0976
ltibia 28.134
lfoot -6.30865 19.3509
ltoes -9.77544
144
root 9.73846 17.0562 -5.65619 -4.76379 -9.07097 -2.24082
lowerback 5.81083 1.55001 3.52712
upperback 2.94738 2.24241 0.989222
thorax -0.123701 1.14818 -1.08756
lowerneck -8.90628 6.33318 2.89433
upperneck -0.521144 8.22375 -3.73726
head 1.6442 4.02023 -1.31958
rclavicle -4.73977e-014 -1.19271e-015
rhumerus -10.8385 16.201 -82.5883
rradius 54.3891
rwrist -16.2229
rhand -24.0127 18.598
rfingers 7.12502
rthumb 2.46509 -11.3675
lclavicle -4.73977e-014 -1.19271e-015
lhumerus -51.9771 29.1332 66.3085
lradius 15.8647
lwrist 5.31705
lhand -20.5265 21.6409
lfingers 7.12502
lthumb 5.83148 51.5407
rfemur 24.2163 6.16116 26.814
rtibia 13.3646
rfoot -10.9318 0.0976763
rtoes -21.1562
lfemur -25.0742 -1.46074 -19.1676
ltibia 29.3292
lfoot -5.6509 19.1056
ltoes -12.1034
